<?xml version="1.0" encoding="utf-8"?>
<!-- Generator: Adobe Illustrator 26.0.0, SVG Export Plug-In . SVG Version: 6.00 Build 0)  -->
<svg version="1.1" id="Layer_1" xmlns="http://www.w3.org/2000/svg" xmlns:xlink="http://www.w3.org/1999/xlink" x="0px" y="0px"
	 viewBox="0 0 156.14 157.01" style="enable-background:new 0 0 156.14 157.01;" xml:space="preserve">
<style type="text/css">
	.st0{stroke:#5200e0;stroke-miterlimit:10; fill:white}
	.st1{fill:none;stroke:white;stroke-width:4;stroke-miterlimit:10;}
	.st2{fill:none;stroke:white;stroke-width:3;stroke-miterlimit:10;}
	.st3{opacity:0.5; fill:white}
	.st4{opacity:0.4; fill:white; animation: floating 2s infinite ease}
	.st4:first-of-type {animation-delay: .2s} .st4:last-of-type {animation-delay: 1s}
	@keyframes floating {
		0% {
			transform: translateY(0);
			opacity: .6
		}
		100% {
			transform: translateY(-8px);
			opacity: 0
		}
	}
</style>
<path class="st0" d="M73.78,48.29l-9.55,12.36l25.17,19.44l9.55-12.36L73.78,48.29z M83.83,70.46l-0.93-0.72l2.48-3.2
	c0.44-0.56,0.63-1.11,0.58-1.62c-0.05-0.51-0.31-0.96-0.78-1.32c-0.49-0.38-1-0.52-1.53-0.43c-0.53,0.09-1.03,0.43-1.48,1.02
	l-2.41,3.12l-0.93-0.72l2.48-3.2c0.44-0.56,0.63-1.11,0.58-1.62c-0.05-0.51-0.31-0.96-0.78-1.32c-0.49-0.38-1-0.52-1.53-0.43
	c-0.53,0.09-1.03,0.43-1.48,1.02l-2.41,3.12l-0.94-0.73l4.38-5.67l0.94,0.73l-0.63,0.82c0.41-0.15,0.84-0.19,1.28-0.1
	c0.44,0.08,0.84,0.27,1.22,0.57c0.48,0.37,0.81,0.8,1.01,1.29c0.2,0.5,0.23,1.02,0.09,1.57c0.47-0.28,0.97-0.39,1.5-0.32
	c0.54,0.06,1.03,0.27,1.48,0.61c0.44,0.34,0.76,0.74,0.97,1.18c0.2,0.45,0.26,0.93,0.18,1.45c-0.08,0.52-0.33,1.04-0.73,1.57
	L83.83,70.46z"/>
<path class="st1" d="M109.2,54.47C95,72.85,80.8,91.24,66.6,109.62c-6.69,8.66-13.38,17.32-20.06,25.97
	c-0.85,1.09-2.78,3.29-6.06,4.73c-2.35,1.03-4.95,1.47-7.58,1.24l-0.93-0.08c-6.31-0.56-11.65-4.9-13.48-10.97
	c-1.45-4.8-0.49-10,2.57-13.96l62.98-81.52L109.2,54.47z"/>
<line class="st1" x1="80.37" y1="32.2" x2="113.09" y2="57.47"/>
<path class="st2" d="M38.93,92.47c3.78-0.95,9.11-1.59,13.5,1.09c2.93,1.79,3.43,3.82,6.18,5.6c2.63,1.71,7.18,3.09,15.43,0.82"/>
<path class="st3" d="M70.51,106.73l-0.45-6.06l-7.52,0.56l0.04,0.5l-3.95-3.05l-0.69,0.9c-0.76-1.99-2.16-3.9-4.12-5.42
	c-4.06-3.13-9.17-3.52-12.32-1.2l-1.39-1.07l-21.31,27.59c-0.72,0.33-1.33,0.79-1.8,1.39c-2.8,3.63,0.44,10.82,7.24,16.08
	s14.58,6.57,17.39,2.95c0.19-0.25,0.35-0.51,0.48-0.79l1.08,0.83l17.01-22.03l0.4,0.31l8.72-11.29l-0.13-0.1L70.51,106.73z"/>
<circle class="st4" cx="91.8" cy="20.86" r="4.63"/>
<circle class="st4" cx="112.72" cy="25.49" r="2.31"/>
<circle class="st4" cx="108.58" cy="12.85" r="1.29"/>
</svg>
