<svg id="Layer_1" data-name="Layer 1" xmlns="http://www.w3.org/2000/svg" viewBox="0 0 153.92 176.44"><defs><style>.cls-1{fill:#FFFFFF;}</style></defs><path class="cls-1" d="M154.76,47a3.8,3.8,0,0,0-1.92-3.3L79.71,1.58a3.83,3.83,0,0,0-3.83,0l-73,42.28a3.82,3.82,0,0,0-1.9,3.31L1,131.58A3.86,3.86,0,0,0,3,134.89L76.09,177a3.83,3.83,0,0,0,3.82,0l73-42.29a3.82,3.82,0,0,0,1.91-3.31Zm-30.32,71.77a2.58,2.58,0,0,1-1.3,2.24l-12,6.81a2.57,2.57,0,0,1-3.85-2.24V82.36a2.58,2.58,0,0,0-4-2.16L77.9,96.83,52.44,80.2a2.58,2.58,0,0,0-4,2.16l0,43.22a2.58,2.58,0,0,1-3.86,2.24l-12-6.81a2.6,2.6,0,0,1-1.3-2.24V62.55a2.6,2.6,0,0,1,1.29-2.24l9.72-5.6a2.58,2.58,0,0,1,2.64,0L77.9,75.12l32.89-20.36a2.6,2.6,0,0,1,2.65,0l9.71,5.6a2.6,2.6,0,0,1,1.29,2.24Z" transform="translate(-0.94 -1.07)"/></svg>